<?xml version="1.0" encoding="UTF-8" standalone="no"?>
<!-- Created with Inkscape (http://www.inkscape.org/) -->
<svg xmlns:rdf="http://www.w3.org/1999/02/22-rdf-syntax-ns#" xmlns="http://www.w3.org/2000/svg" xmlns:cc="http://creativecommons.org/ns#" xmlns:dc="http://purl.org/dc/elements/1.1/" xmlns:svg="http://www.w3.org/2000/svg" xmlns:inkscape="http://www.inkscape.org/namespaces/inkscape" xmlns:sodipodi="http://sodipodi.sourceforge.net/DTD/sodipodi-0.dtd" xmlns:ns1="http://sozi.baierouge.fr" xmlns:xlink="http://www.w3.org/1999/xlink" id="svg18074" viewBox="0 0 744.09 1052.4" version="1.1" inkscape:version="0.91 r13725">
  <g id="layer1">
    <g id="g17409" style="stroke:#000000;stroke-width:.60808" transform="matrix(.80617 -5.3385 5.3385 .80617 -1771.6 9140.3)">
      <g id="g926" style="stroke:#000000;stroke-width:1.5818" transform="matrix(.12281 .36428 -.36428 .12281 1696.5 92.691)">
        <path id="path920" style="fill-rule:evenodd;stroke:#000000;stroke-width:1.5818;fill:#b3b3b3" d="m124.81 381.07c3.1191-23.513 2.6392-49.185-2.1594-74.138-4.7986-27.352-11.756-46.066-22.313-67.66-6.9579-0.23993-13.916-0.47985-20.874-0.71978 5.9982-29.991 13.436-57.103 30.951-83.495l62.621-5.0385c12.956-13.916 20.874-27.112 25.912-44.627 3.8388-13.436 6.2381-36.949 2.8791-52.544-2.3993-17.035-5.5183-23.273-11.517-35.989l-79.176 23.753c-53.258 78.947-77.731 148.53-84.209 234.66l97.891 105.81z"/>
        <path id="path919" style="fill-rule:evenodd;stroke:#000000;stroke-width:1.5818;fill:#ececec" d="m189.59 16.861-35.989-3.5989-43.907 18.714c-71.426 98.854-100.77 211.72-97.884 290.79l10.797 32.39c17.515 14.876 37.189 26.872 61.182 35.989l39.588-9.3572-20.874-73.418-2.8791-69.819-42.467-2.8792c2.247-38.34 14.827-83.06 39.587-131.01l52.544-15.115 40.308-72.698z"/>
        <path id="path922" style="fill-rule:evenodd;stroke:#000000;stroke-width:1.5818;fill:#b3b3b3" d="m189.59 17.581-40.141 71.811 23.498 59.953c32.33-35.8 36.32-86.173 16.64-131.76z"/>
        <path id="path926" style="stroke:#000000;stroke-linecap:round;stroke-width:1.5818;fill:none" d="m154.4 13.771-25.992 56.354-45.346 26.632c-20.633 46.543-39.108 90.213-40.307 137.48l21.594 2.1593c-1.9194 26.632-0.95971 51.824 2.8791 77.737 5.5183 25.672 13.196 50.625 25.192 74.857"/>
      </g>
      <path id="path17389" style="stroke:#000000;stroke-width:.60808;fill:none" d="m1580.8 138.5 8 16.5"/>
      <path id="path17389-4" style="stroke:#000000;stroke-width:.60808;fill:none" d="m1589.5 156.75 6.5 11"/>
    </g>
    <g id="g17710" style="stroke:#4d4d4d;stroke-width:.60808;fill:#333333" transform="matrix(1.6902 -7.5285 7.5285 1.6902 -3627.5 12673)">
      <path id="path17418" style="color:#000000;stroke:#4d4d4d;stroke-width:.60808;fill:#333333" d="m1685.2 166.75a0.625 1.625 0 1 1 -1.25 0 0.625 1.625 0 1 1 1.25 0z" transform="matrix(.61759 .78650 -.78650 .61759 774.74 -1263.2)"/>
      <path id="path17700" style="color:#000000;stroke:#4d4d4d;stroke-width:.60808;fill:#333333" d="m1685.2 166.75a0.625 1.625 0 1 1 -1.25 0 0.625 1.625 0 1 1 1.25 0z" transform="matrix(.61759 .78650 -.78650 .61759 779.49 -1261.9)"/>
      <path id="path17702" style="color:#000000;stroke:#4d4d4d;stroke-width:.60808;fill:#333333" d="m1685.2 166.75a0.625 1.625 0 1 1 -1.25 0 0.625 1.625 0 1 1 1.25 0z" transform="matrix(.61759 .78650 -.78650 .61759 780.99 -1258.8)"/>
      <path id="path17704" style="color:#000000;stroke:#4d4d4d;stroke-width:.60808;fill:#333333" d="m1685.2 166.75a0.625 1.625 0 1 1 -1.25 0 0.625 1.625 0 1 1 1.25 0z" transform="matrix(.61759 .78650 -.78650 .61759 776.49 -1255.7)"/>
      <path id="path17706" style="color:#000000;stroke:#4d4d4d;stroke-width:.60808;fill:#333333" d="m1685.2 166.75a0.625 1.625 0 1 1 -1.25 0 0.625 1.625 0 1 1 1.25 0z" transform="matrix(.61759 .78650 -.78650 .61759 772.12 -1256.4)"/>
      <path id="path17708" style="color:#000000;stroke:#4d4d4d;stroke-width:.60808;fill:#333333" d="m1685.2 166.75a0.625 1.625 0 1 1 -1.25 0 0.625 1.625 0 1 1 1.25 0z" transform="matrix(.61759 .78650 -.78650 .61759 771.24 -1259.6)"/>
    </g>
  </g>
  <metadata>
    <rdf:RDF>
      <cc:Work>
        <dc:format>image/svg+xml</dc:format>
        <dc:type rdf:resource="http://purl.org/dc/dcmitype/StillImage"/>
        <cc:license rdf:resource="http://creativecommons.org/licenses/publicdomain/"/>
        <dc:publisher>
          <cc:Agent rdf:about="http://openclipart.org/">
            <dc:title>Openclipart</dc:title>
          </cc:Agent>
        </dc:publisher>
        <dc:title>Simplified Telephone Reciever</dc:title>
        <dc:date>2011-02-16T19:36:43</dc:date>
        <dc:description>simplified telephone receiver</dc:description>
        <dc:source>https://openclipart.org/detail/119737/simplified-telephone-reciever-by-entropy_eater</dc:source>
        <dc:creator>
          <cc:Agent>
            <dc:title>entropy_eater</dc:title>
          </cc:Agent>
        </dc:creator>
        <dc:subject>
          <rdf:Bag>
            <rdf:li>phone</rdf:li>
            <rdf:li>receiver</rdf:li>
            <rdf:li>telephone</rdf:li>
            <rdf:li>telephony</rdf:li>
          </rdf:Bag>
        </dc:subject>
      </cc:Work>
      <cc:License rdf:about="http://creativecommons.org/licenses/publicdomain/">
        <cc:permits rdf:resource="http://creativecommons.org/ns#Reproduction"/>
        <cc:permits rdf:resource="http://creativecommons.org/ns#Distribution"/>
        <cc:permits rdf:resource="http://creativecommons.org/ns#DerivativeWorks"/>
      </cc:License>
    </rdf:RDF>
  </metadata>
</svg>
